<svg viewBox="0 0 248 112" xmlns="http://www.w3.org/2000/svg"><g fill="#fff"><path d="m2.34 12.32q-.04-.15-.13-.31-.08-.15-.17-.29-.11-.18-.27-.53-.16-.35-.35-.77-.19-.42-.37-.89-.18-.47-.34-.9-.15-.43-.25-.78-.11-.35-.14-.56.07 0 .25-.04.19-.05.38-.1.2-.05.36-.09.16-.03.19 0 .03.01.07.15.04.14.08.32.04.17.08.32.03.16.05.21.18.72.5 1.54.32.83.7 1.46.48-1.04.87-2.09.39-1.06.84-2.1.11-.05.3-.09.19-.03.37-.02.18.02.33.09.15.07.19.23-.2.63-.48 1.21-.29.59-.56 1.2-.5 1.21-1 2.43-.49 1.23-1.18 2.35-.08.15-.24.42-.15.28-.32.56-.17.29-.34.53-.16.24-.3.32-.28 0-.43-.15-.15-.14-.34-.33l-.14-.35q.35-.3.58-.69.23-.38.49-.76.07-.1.19-.3.11-.21.21-.43.11-.22.19-.43.09-.21.13-.34zm5.32-7.39q.26.14.36.38.09.23.03.48-.06.24-.23.43-.18.19-.44.23-.38.06-.61-.13-.23-.19-.28-.46-.05-.27.08-.56.14-.29.5-.44.2-.09.34-.04.14.05.25.11zm-.95 3.29q0-.13.01-.34.01-.22.03-.31.08 0 .3-.02.22-.03.3 0 .14.01.28.05.14.04.25.06.03.12.04.5.02.37.02.86 0 .49-.01 1.04-.01.55-.02 1.05-.01.5-.03.87-.01.37-.03.49-.01.13-.18.18-.18.05-.39.06-.21 0-.41-.02-.19-.02-.25-.02 0-.13.01-.47.01-.34.02-.8.01-.47.02-.98.01-.51.02-.96.02-.46.02-.79 0-.34 0-.45zm7.21 4.44q-.1.01-.2.02-.1.02-.18.05-.38.11-.7-.07.03-1 .08-2.01.02-.29 0-.61-.01-.31-.05-.6-.12-.69-.44-.91-.33-.21-.7-.12-.38.09-.69.4-.32.32-.4.68-.17.72-.19 1.44-.02.73-.02 1.45v.33q-.11 0-.28.02-.17.01-.34.01-.16 0-.3-.05-.13-.05-.19-.17 0-.12 0-.53 0-.41 0-.97-.01-.56-.01-1.18 0-.63.01-1.17 0-.54.03-.9.02-.36.06-.41.01-.02.08-.04.07-.01.16-.02.08-.01.15-.01.07 0 .11-.01.07-.06.18-.03.12.03.19.03.07.2.1.43.04.23.04.47.36-.41.84-.71.49-.3.97-.36.48-.07.92.17.43.24.7.91.26.66.28 1.39.02.72.01 1.42 0 .14-.01.38 0 .23-.03.46-.03.24-.07.47-.04.22-.11.35zm3.15-.34q-.05-.15-.13-.31-.08-.15-.17-.29-.11-.18-.27-.53-.16-.35-.35-.77-.19-.42-.37-.89-.18-.47-.34-.9-.15-.43-.26-.78-.1-.35-.13-.56.07 0 .25-.04.18-.05.38-.1.2-.05.36-.09.16-.03.19 0 .02.01.07.15.04.14.08.32.04.17.08.32.03.16.05.21.18.72.5 1.54.32.83.7 1.46.48-1.04.87-2.09.39-1.06.84-2.1.11-.05.3-.09.19-.03.37-.02.18.02.33.09.15.07.19.23-.2.63-.48 1.21-.29.59-.56 1.2-.5 1.21-1 2.43-.5 1.23-1.18 2.35-.09.15-.24.42-.15.28-.32.56-.17.29-.34.53-.17.24-.31.32-.28 0-.42-.15-.15-.14-.35-.33l-.14-.35q.35-.3.59-.69.23-.38.49-.76.07-.1.18-.3.12-.21.22-.43.11-.22.19-.43.08-.21.13-.34zm5.32-7.39q.26.14.35.38.09.23.04.48-.06.24-.23.43-.18.19-.44.23-.38.06-.61-.13-.23-.19-.28-.46-.05-.27.08-.56.13-.29.5-.44.19-.09.33-.04.14.05.26.11zm-.96 3.29q0-.13.02-.34.01-.22.03-.31.08 0 .3-.02.21-.03.3 0 .14.01.28.05.14.04.25.06.03.12.04.5.02.37.02.86 0 .49-.01 1.04-.01.55-.02 1.05-.02.5-.03.87-.01.37-.03.49-.01.13-.19.18-.17.05-.38.06-.21 0-.41-.02-.19-.02-.25-.02 0-.13.01-.47 0-.34.02-.8.01-.47.02-.98.01-.51.02-.96.01-.46.01-.79 0-.34 0-.45zm7.21 4.44q-.09.01-.19.02-.1.02-.18.05-.38.11-.7-.07.02-1 .08-2.01.01-.29 0-.61-.01-.31-.06-.6-.11-.69-.44-.91-.33-.21-.7-.12-.37.09-.68.4-.32.32-.4.68-.17.72-.19 1.44-.02.73-.02 1.45v.33q-.11 0-.28.02-.17.01-.34.01-.17 0-.3-.05-.13-.05-.19-.17 0-.12 0-.53 0-.41 0-.97-.01-.56-.01-1.18 0-.63.01-1.17 0-.54.02-.9.02-.36.07-.41.01-.02.08-.04.07-.01.15-.02.09-.01.16-.01.07 0 .11-.01.07-.06.18-.03.11.03.18.03.07.2.11.43.03.23.03.47.37-.41.85-.71.48-.3.97-.36.48-.07.91.17.44.24.7.91.27.66.29 1.39.02.72.01 1.42 0 .14-.01.38-.01.23-.03.46-.03.24-.07.47-.05.22-.12.35z" transform="matrix(5.31074154 0 0 5.31074154 94.068632 .052539)"/><g transform="matrix(1.11111035 0 0 1.11111035 .116001 .444521)"><path d="m29.421 59.16c-4.724 26.075 5.842 36.644 12.026 40.709.978.643 4.746-1.233 4.838-2.353-15.332-12.87-16.377-21.585-16.864-38.356zm-.504-1.455c8.686-4.976 11.889-16.434 3.259-23.373-13.023-10.479-9.013-24.822-4.775-34.332-32.308 15.434-34.255 52.02-15.19 58.81 4.415 1.575 8.546 1.654 12.138.736-4.33-5.444-8.064-13.82-9.208-26.824 3.452 11.31 6.136 18.687 13.776 24.983z"/><path d="m66.335 32.81c-2.896 6.868-8.432 15.983-20.279 14.306-7.849-1.12-12.27 6.158-10.623 13.133 7.029.917 12.197-1.289 19.799-5.023-7.355 5.766-13.563 7.91-18.526 8.317 1.283 2.32 3.347 4.443 6.324 5.979 12.879 6.642 31.046-12.276 23.305-36.712z"/></g></g></svg>