<svg data-v-423bf9ae="" xmlns="http://www.w3.org/2000/svg" viewBox="0 0 248 112" class="iconLeft"><!----><!----><!----><g data-v-423bf9ae="" id="a9da0bd2-5065-4da0-b322-f1b3a916fe71" fill="#ffffff" transform="matrix(5.310741540528463,0,0,5.310741540528463,94.06863152593091,0.052539174961559354)"><path d="M2.34 12.32L2.34 12.32L2.34 12.32Q2.30 12.17 2.21 12.01L2.21 12.01L2.21 12.01Q2.13 11.86 2.04 11.72L2.04 11.72L2.04 11.72Q1.93 11.54 1.77 11.19L1.77 11.19L1.77 11.19Q1.61 10.84 1.42 10.42L1.42 10.42L1.42 10.42Q1.23 10.00 1.05 9.53L1.05 9.53L1.05 9.53Q0.87 9.06 0.71 8.63L0.71 8.63L0.71 8.63Q0.56 8.20 0.46 7.85L0.46 7.85L0.46 7.85Q0.35 7.50 0.32 7.29L0.32 7.29L0.32 7.29Q0.39 7.29 0.57 7.25L0.57 7.25L0.57 7.25Q0.76 7.20 0.95 7.15L0.95 7.15L0.95 7.15Q1.15 7.10 1.31 7.06L1.31 7.06L1.31 7.06Q1.47 7.03 1.50 7.06L1.50 7.06L1.50 7.06Q1.53 7.07 1.57 7.21L1.57 7.21L1.57 7.21Q1.61 7.35 1.65 7.53L1.65 7.53L1.65 7.53Q1.69 7.70 1.73 7.85L1.73 7.85L1.73 7.85Q1.76 8.01 1.78 8.06L1.78 8.06L1.78 8.06Q1.96 8.78 2.28 9.60L2.28 9.60L2.28 9.60Q2.60 10.43 2.98 11.06L2.98 11.06L2.98 11.06Q3.46 10.02 3.85 8.97L3.85 8.97L3.85 8.97Q4.24 7.91 4.69 6.87L4.69 6.87L4.69 6.87Q4.80 6.82 4.99 6.78L4.99 6.78L4.99 6.78Q5.18 6.75 5.36 6.76L5.36 6.76L5.36 6.76Q5.54 6.78 5.69 6.85L5.69 6.85L5.69 6.85Q5.84 6.92 5.88 7.08L5.88 7.08L5.88 7.08Q5.68 7.71 5.40 8.29L5.40 8.29L5.40 8.29Q5.11 8.88 4.84 9.49L4.84 9.49L4.84 9.49Q4.34 10.70 3.84 11.92L3.84 11.92L3.84 11.92Q3.35 13.15 2.66 14.27L2.66 14.27L2.66 14.27Q2.58 14.42 2.42 14.69L2.42 14.69L2.42 14.69Q2.27 14.97 2.10 15.25L2.10 15.25L2.10 15.25Q1.93 15.54 1.76 15.78L1.76 15.78L1.76 15.78Q1.60 16.02 1.46 16.10L1.46 16.10L1.46 16.10Q1.18 16.10 1.03 15.95L1.03 15.95L1.03 15.95Q0.88 15.81 0.69 15.62L0.69 15.62L0.55 15.27L0.55 15.27Q0.90 14.97 1.13 14.58L1.13 14.58L1.13 14.58Q1.36 14.20 1.62 13.82L1.62 13.82L1.62 13.82Q1.69 13.72 1.81 13.52L1.81 13.52L1.81 13.52Q1.92 13.31 2.02 13.09L2.02 13.09L2.02 13.09Q2.13 12.87 2.21 12.66L2.21 12.66L2.21 12.66Q2.30 12.45 2.34 12.32ZM7.66 4.93L7.66 4.93L7.66 4.93Q7.92 5.07 8.02 5.31L8.02 5.31L8.02 5.31Q8.11 5.54 8.05 5.79L8.05 5.79L8.05 5.79Q7.99 6.03 7.82 6.22L7.82 6.22L7.82 6.22Q7.64 6.41 7.38 6.45L7.38 6.45L7.38 6.45Q7 6.51 6.77 6.32L6.77 6.32L6.77 6.32Q6.54 6.13 6.49 5.86L6.49 5.86L6.49 5.86Q6.44 5.59 6.57 5.30L6.57 5.30L6.57 5.30Q6.71 5.01 7.07 4.86L7.07 4.86L7.07 4.86Q7.27 4.77 7.41 4.82L7.41 4.82L7.41 4.82Q7.55 4.87 7.66 4.93ZM6.71 8.22L6.71 8.22L6.71 8.22Q6.71 8.09 6.72 7.88L6.72 7.88L6.72 7.88Q6.73 7.66 6.75 7.57L6.75 7.57L6.75 7.57Q6.83 7.57 7.05 7.55L7.05 7.55L7.05 7.55Q7.27 7.52 7.35 7.55L7.35 7.55L7.35 7.55Q7.49 7.56 7.63 7.60L7.63 7.60L7.63 7.60Q7.77 7.64 7.88 7.66L7.88 7.66L7.88 7.66Q7.91 7.78 7.92 8.16L7.92 8.16L7.92 8.16Q7.94 8.53 7.94 9.02L7.94 9.02L7.94 9.02Q7.94 9.51 7.93 10.06L7.93 10.06L7.93 10.06Q7.92 10.61 7.91 11.11L7.91 11.11L7.91 11.11Q7.90 11.61 7.88 11.98L7.88 11.98L7.88 11.98Q7.87 12.35 7.85 12.47L7.85 12.47L7.85 12.47Q7.84 12.60 7.67 12.65L7.67 12.65L7.67 12.65Q7.49 12.70 7.28 12.71L7.28 12.71L7.28 12.71Q7.07 12.71 6.87 12.69L6.87 12.69L6.87 12.69Q6.68 12.67 6.62 12.67L6.62 12.67L6.62 12.67Q6.62 12.54 6.63 12.20L6.63 12.20L6.63 12.20Q6.64 11.86 6.65 11.40L6.65 11.40L6.65 11.40Q6.66 10.93 6.67 10.42L6.67 10.42L6.67 10.42Q6.68 9.91 6.69 9.46L6.69 9.46L6.69 9.46Q6.71 9.00 6.71 8.67L6.71 8.67L6.71 8.67Q6.71 8.33 6.71 8.22ZM13.92 12.66L13.92 12.66L13.92 12.66Q13.82 12.67 13.72 12.68L13.72 12.68L13.72 12.68Q13.62 12.70 13.54 12.73L13.54 12.73L13.54 12.73Q13.16 12.84 12.84 12.66L12.84 12.66L12.84 12.66Q12.87 11.66 12.92 10.65L12.92 10.65L12.92 10.65Q12.94 10.36 12.92 10.04L12.92 10.04L12.92 10.04Q12.91 9.73 12.87 9.44L12.87 9.44L12.87 9.44Q12.75 8.75 12.43 8.53L12.43 8.53L12.43 8.53Q12.10 8.32 11.73 8.41L11.73 8.41L11.73 8.41Q11.35 8.50 11.04 8.81L11.04 8.81L11.04 8.81Q10.72 9.13 10.64 9.49L10.64 9.49L10.64 9.49Q10.47 10.21 10.45 10.93L10.45 10.93L10.45 10.93Q10.43 11.66 10.43 12.38L10.43 12.38L10.43 12.71L10.43 12.71Q10.32 12.71 10.15 12.73L10.15 12.73L10.15 12.73Q9.98 12.74 9.81 12.74L9.81 12.74L9.81 12.74Q9.65 12.74 9.51 12.69L9.51 12.69L9.51 12.69Q9.38 12.64 9.32 12.52L9.32 12.52L9.32 12.52Q9.32 12.40 9.32 11.99L9.32 11.99L9.32 11.99Q9.32 11.58 9.32 11.02L9.32 11.02L9.32 11.02Q9.31 10.46 9.31 9.84L9.31 9.84L9.31 9.84Q9.31 9.21 9.32 8.67L9.32 8.67L9.32 8.67Q9.32 8.13 9.35 7.77L9.35 7.77L9.35 7.77Q9.37 7.41 9.41 7.36L9.41 7.36L9.41 7.36Q9.42 7.34 9.49 7.32L9.49 7.32L9.49 7.32Q9.56 7.31 9.65 7.30L9.65 7.30L9.65 7.30Q9.73 7.29 9.80 7.29L9.80 7.29L9.80 7.29Q9.87 7.29 9.91 7.28L9.91 7.28L9.91 7.28Q9.98 7.22 10.09 7.25L10.09 7.25L10.09 7.25Q10.21 7.28 10.28 7.28L10.28 7.28L10.28 7.28Q10.35 7.48 10.38 7.71L10.38 7.71L10.38 7.71Q10.42 7.94 10.42 8.18L10.42 8.18L10.42 8.18Q10.78 7.77 11.26 7.47L11.26 7.47L11.26 7.47Q11.75 7.17 12.23 7.11L12.23 7.11L12.23 7.11Q12.71 7.04 13.15 7.28L13.15 7.28L13.15 7.28Q13.58 7.52 13.85 8.19L13.85 8.19L13.85 8.19Q14.11 8.85 14.13 9.58L14.13 9.58L14.13 9.58Q14.15 10.30 14.14 11.00L14.14 11.00L14.14 11.00Q14.14 11.14 14.13 11.38L14.13 11.38L14.13 11.38Q14.13 11.61 14.10 11.84L14.10 11.84L14.10 11.84Q14.07 12.08 14.03 12.31L14.03 12.31L14.03 12.31Q13.99 12.53 13.92 12.66ZM17.07 12.32L17.07 12.32L17.07 12.32Q17.02 12.17 16.94 12.01L16.94 12.01L16.94 12.01Q16.86 11.86 16.77 11.72L16.77 11.72L16.77 11.72Q16.66 11.54 16.50 11.19L16.50 11.19L16.50 11.19Q16.34 10.84 16.15 10.42L16.15 10.42L16.15 10.42Q15.96 10.00 15.78 9.53L15.78 9.53L15.78 9.53Q15.60 9.06 15.44 8.63L15.44 8.63L15.44 8.63Q15.29 8.20 15.18 7.85L15.18 7.85L15.18 7.85Q15.08 7.50 15.05 7.29L15.05 7.29L15.05 7.29Q15.12 7.29 15.30 7.25L15.30 7.25L15.30 7.25Q15.48 7.20 15.68 7.15L15.68 7.15L15.68 7.15Q15.88 7.10 16.04 7.06L16.04 7.06L16.04 7.06Q16.20 7.03 16.23 7.06L16.23 7.06L16.23 7.06Q16.25 7.07 16.30 7.21L16.30 7.21L16.30 7.21Q16.34 7.35 16.38 7.53L16.38 7.53L16.38 7.53Q16.42 7.70 16.46 7.85L16.46 7.85L16.46 7.85Q16.49 8.01 16.51 8.06L16.51 8.06L16.51 8.06Q16.69 8.78 17.01 9.60L17.01 9.60L17.01 9.60Q17.33 10.43 17.71 11.06L17.71 11.06L17.71 11.06Q18.19 10.02 18.58 8.97L18.58 8.97L18.58 8.97Q18.97 7.91 19.42 6.87L19.42 6.87L19.42 6.87Q19.53 6.82 19.72 6.78L19.72 6.78L19.72 6.78Q19.91 6.75 20.09 6.76L20.09 6.76L20.09 6.76Q20.27 6.78 20.42 6.85L20.42 6.85L20.42 6.85Q20.57 6.92 20.61 7.08L20.61 7.08L20.61 7.08Q20.41 7.71 20.13 8.29L20.13 8.29L20.13 8.29Q19.84 8.88 19.57 9.49L19.57 9.49L19.57 9.49Q19.07 10.70 18.57 11.92L18.57 11.92L18.57 11.92Q18.07 13.15 17.39 14.27L17.39 14.27L17.39 14.27Q17.30 14.42 17.15 14.69L17.15 14.69L17.15 14.69Q17.00 14.97 16.83 15.25L16.83 15.25L16.83 15.25Q16.66 15.54 16.49 15.78L16.49 15.78L16.49 15.78Q16.32 16.02 16.18 16.10L16.18 16.10L16.18 16.10Q15.90 16.10 15.76 15.95L15.76 15.95L15.76 15.95Q15.61 15.81 15.41 15.62L15.41 15.62L15.27 15.27L15.27 15.27Q15.62 14.97 15.86 14.58L15.86 14.58L15.86 14.58Q16.09 14.20 16.35 13.82L16.35 13.82L16.35 13.82Q16.42 13.72 16.53 13.52L16.53 13.52L16.53 13.52Q16.65 13.31 16.75 13.09L16.75 13.09L16.75 13.09Q16.86 12.87 16.94 12.66L16.94 12.66L16.94 12.66Q17.02 12.45 17.07 12.32ZM22.39 4.93L22.39 4.93L22.39 4.93Q22.65 5.07 22.74 5.31L22.74 5.31L22.74 5.31Q22.83 5.54 22.78 5.79L22.78 5.79L22.78 5.79Q22.72 6.03 22.55 6.22L22.55 6.22L22.55 6.22Q22.37 6.41 22.11 6.45L22.11 6.45L22.11 6.45Q21.73 6.51 21.50 6.32L21.50 6.32L21.50 6.32Q21.27 6.13 21.22 5.86L21.22 5.86L21.22 5.86Q21.17 5.59 21.30 5.30L21.30 5.30L21.30 5.30Q21.43 5.01 21.80 4.86L21.80 4.86L21.80 4.86Q21.99 4.77 22.13 4.82L22.13 4.82L22.13 4.82Q22.27 4.87 22.39 4.93ZM21.43 8.22L21.43 8.22L21.43 8.22Q21.43 8.09 21.45 7.88L21.45 7.88L21.45 7.88Q21.46 7.66 21.48 7.57L21.48 7.57L21.48 7.57Q21.56 7.57 21.78 7.55L21.78 7.55L21.78 7.55Q21.99 7.52 22.08 7.55L22.08 7.55L22.08 7.55Q22.22 7.56 22.36 7.60L22.36 7.60L22.36 7.60Q22.50 7.64 22.61 7.66L22.61 7.66L22.61 7.66Q22.64 7.78 22.65 8.16L22.65 8.16L22.65 8.16Q22.67 8.53 22.67 9.02L22.67 9.02L22.67 9.02Q22.67 9.51 22.66 10.06L22.66 10.06L22.66 10.06Q22.65 10.61 22.64 11.11L22.64 11.11L22.64 11.11Q22.62 11.61 22.61 11.98L22.61 11.98L22.61 11.98Q22.60 12.35 22.58 12.47L22.58 12.47L22.58 12.47Q22.57 12.60 22.39 12.65L22.39 12.65L22.39 12.65Q22.22 12.70 22.01 12.71L22.01 12.71L22.01 12.71Q21.80 12.71 21.60 12.69L21.60 12.69L21.60 12.69Q21.41 12.67 21.35 12.67L21.35 12.67L21.35 12.67Q21.35 12.54 21.36 12.20L21.36 12.20L21.36 12.20Q21.36 11.86 21.38 11.40L21.38 11.40L21.38 11.40Q21.39 10.93 21.40 10.42L21.40 10.42L21.40 10.42Q21.41 9.91 21.42 9.46L21.42 9.46L21.42 9.46Q21.43 9.00 21.43 8.67L21.43 8.67L21.43 8.67Q21.43 8.33 21.43 8.22ZM28.64 12.66L28.64 12.66L28.64 12.66Q28.55 12.67 28.45 12.68L28.45 12.68L28.45 12.68Q28.35 12.70 28.27 12.73L28.27 12.73L28.27 12.73Q27.89 12.84 27.57 12.66L27.57 12.66L27.57 12.66Q27.59 11.66 27.65 10.65L27.65 10.65L27.65 10.65Q27.66 10.36 27.65 10.04L27.65 10.04L27.65 10.04Q27.64 9.73 27.59 9.44L27.59 9.44L27.59 9.44Q27.48 8.75 27.15 8.53L27.15 8.53L27.15 8.53Q26.82 8.32 26.45 8.41L26.45 8.41L26.45 8.41Q26.08 8.50 25.77 8.81L25.77 8.81L25.77 8.81Q25.45 9.13 25.37 9.49L25.37 9.49L25.37 9.49Q25.20 10.21 25.18 10.93L25.18 10.93L25.18 10.93Q25.16 11.66 25.16 12.38L25.16 12.38L25.16 12.71L25.16 12.71Q25.05 12.71 24.88 12.73L24.88 12.73L24.88 12.73Q24.71 12.74 24.54 12.74L24.54 12.74L24.54 12.74Q24.37 12.74 24.24 12.69L24.24 12.69L24.24 12.69Q24.11 12.64 24.05 12.52L24.05 12.52L24.05 12.52Q24.05 12.40 24.05 11.99L24.05 11.99L24.05 11.99Q24.05 11.58 24.05 11.02L24.05 11.02L24.05 11.02Q24.04 10.46 24.04 9.84L24.04 9.84L24.04 9.84Q24.04 9.21 24.05 8.67L24.05 8.67L24.05 8.67Q24.05 8.13 24.07 7.77L24.07 7.77L24.07 7.77Q24.09 7.41 24.14 7.36L24.14 7.36L24.14 7.36Q24.15 7.34 24.22 7.32L24.22 7.32L24.22 7.32Q24.29 7.31 24.37 7.30L24.37 7.30L24.37 7.30Q24.46 7.29 24.53 7.29L24.53 7.29L24.53 7.29Q24.60 7.29 24.64 7.28L24.64 7.28L24.64 7.28Q24.71 7.22 24.82 7.25L24.82 7.25L24.82 7.25Q24.93 7.28 25.00 7.28L25.00 7.28L25.00 7.28Q25.07 7.48 25.11 7.71L25.11 7.71L25.11 7.71Q25.14 7.94 25.14 8.18L25.14 8.18L25.14 8.18Q25.51 7.77 25.99 7.47L25.99 7.47L25.99 7.47Q26.47 7.17 26.96 7.11L26.96 7.11L26.96 7.11Q27.44 7.04 27.87 7.28L27.87 7.28L27.87 7.28Q28.31 7.52 28.57 8.19L28.57 8.19L28.57 8.19Q28.84 8.85 28.86 9.58L28.86 9.58L28.86 9.58Q28.88 10.30 28.87 11.00L28.87 11.00L28.87 11.00Q28.87 11.14 28.86 11.38L28.86 11.38L28.86 11.38Q28.85 11.61 28.83 11.84L28.83 11.84L28.83 11.84Q28.80 12.08 28.76 12.31L28.76 12.31L28.76 12.31Q28.71 12.53 28.64 12.66Z"></path></g><!----><g data-v-423bf9ae="" id="4b9b4a54-9038-4ed4-b4f7-b6fbf8b123c8" transform="matrix(1.111110348171658,0,0,1.111110348171658,0.11600107470827936,0.44452073836356476)" stroke="none" fill="#FFFFFF"><g><path d="M29.421 59.16c-4.724 26.075 5.842 36.644 12.026 40.709.978.643 4.746-1.233 4.838-2.353-15.332-12.87-16.377-21.585-16.864-38.356zM28.917 57.705c8.686-4.976 11.889-16.434 3.259-23.373C19.153 23.853 23.163 9.51 27.401 0-4.907 15.434-6.854 52.02 12.211 58.81c4.415 1.575 8.546 1.654 12.138.736-4.33-5.444-8.064-13.82-9.208-26.824 3.452 11.31 6.136 18.687 13.776 24.983z"></path><path d="M66.335 32.81c-2.896 6.868-8.432 15.983-20.279 14.306-7.849-1.12-12.27 6.158-10.623 13.133 7.029.917 12.197-1.289 19.799-5.023-7.355 5.766-13.563 7.91-18.526 8.317 1.283 2.32 3.347 4.443 6.324 5.979 12.879 6.642 31.046-12.276 23.305-36.712z"></path></g></g><!----></svg>