<svg data-v-423bf9ae="" xmlns="http://www.w3.org/2000/svg" viewBox="0 0 40.91481691233461 60" class="icon"><!----><!----><!----><!----><g data-v-423bf9ae="" id="c0a41be1-9ef5-4d55-82da-4abfb9aa670a" transform="matrix(0.6000004119875876,0,0,0.6000004119875876,0.00020987588567678017,0)" stroke="none" fill="white"><g><path d="M29.421 59.16c-4.724 26.075 5.842 36.644 12.026 40.709.978.643 4.746-1.233 4.838-2.353-15.332-12.87-16.377-21.585-16.864-38.356zM28.917 57.705c8.686-4.976 11.889-16.434 3.259-23.373C19.153 23.853 23.163 9.51 27.401 0-4.907 15.434-6.854 52.02 12.211 58.81c4.415 1.575 8.546 1.654 12.138.736-4.33-5.444-8.064-13.82-9.208-26.824 3.452 11.31 6.136 18.687 13.776 24.983z"></path><path d="M66.335 32.81c-2.896 6.868-8.432 15.983-20.279 14.306-7.849-1.12-12.27 6.158-10.623 13.133 7.029.917 12.197-1.289 19.799-5.023-7.355 5.766-13.563 7.91-18.526 8.317 1.283 2.32 3.347 4.443 6.324 5.979 12.879 6.642 31.046-12.276 23.305-36.712z"></path></g></g><!----></svg>