<svg data-v-fde0c5aa="" xmlns="http://www.w3.org/2000/svg" viewBox="0 0 300 300" class="icon"><!----><defs data-v-fde0c5aa=""><!----></defs><rect data-v-fde0c5aa="" fill="#000000" x="0" y="0" width="300px" height="300px" class="logo-background-square"></rect><!----><defs data-v-fde0c5aa=""><!----></defs><g data-v-fde0c5aa="" id="8b394b33-14a5-4f4b-b98b-e7a389430487" fill="#FFFFFF" stroke="none" transform="matrix(2.2000015106211546,0,0,2.2000015106211546,74.99027022647338,40)"><g><path d="M29.421 59.16c-4.724 26.075 5.842 36.644 12.026 40.709.978.643 4.746-1.233 4.838-2.353-15.332-12.87-16.377-21.585-16.864-38.356zM28.917 57.705c8.686-4.976 11.889-16.434 3.259-23.373C19.153 23.853 23.163 9.51 27.401 0-4.907 15.434-6.854 52.02 12.211 58.81c4.415 1.575 8.546 1.654 12.138.736-4.33-5.444-8.064-13.82-9.208-26.824 3.452 11.31 6.136 18.687 13.776 24.983z"></path><path d="M66.335 32.81c-2.896 6.868-8.432 15.983-20.279 14.306-7.849-1.12-12.27 6.158-10.623 13.133 7.029.917 12.197-1.289 19.799-5.023-7.355 5.766-13.563 7.91-18.526 8.317 1.283 2.32 3.347 4.443 6.324 5.979 12.879 6.642 31.046-12.276 23.305-36.712z"></path></g></g><!----></svg>